<svg version="1.1" id="Layer_1" xmlns="http://www.w3.org/2000/svg" xmlns:xlink="http://www.w3.org/1999/xlink" x="0px" y="0px"
	 width="100%" viewBox="0 0 1024 544" enable-background="new 0 0 1024 544" xml:space="preserve">
<path fill="#000000" opacity="1.000000" stroke="none" 
	d="
M570.362061,227.652924 
	C553.376709,212.369873 536.479248,197.516678 520.256897,181.917358 
	C517.463440,179.231186 517.093750,177.639877 520.252808,174.860580 
	C530.133667,166.167496 539.651001,157.058136 550.656738,149.728241 
	C552.843445,148.271896 554.748962,147.142853 557.212585,149.606140 
	C578.554443,170.945251 602.630493,189.311310 623.963867,210.641296 
	C639.179626,225.854645 650.889343,243.558228 655.119873,264.946167 
	C662.246460,300.974609 652.897278,331.370148 622.894592,354.395538 
	C597.703674,373.728180 570.089539,387.319733 538.434448,391.775940 
	C502.813477,396.790405 468.722412,391.958313 436.639343,375.133301 
	C435.543335,374.558502 434.014008,374.320099 433.810120,372.595062 
	C435.192017,371.197479 436.597198,372.477844 437.951660,372.582031 
	C448.289185,373.377167 458.869812,374.237366 468.741699,371.140656 
	C480.363312,367.495087 491.540619,369.380005 503.136383,370.155914 
	C538.378601,372.514160 569.919312,363.764709 592.370117,334.491791 
	C607.266785,315.068390 612.671326,293.070374 603.903076,269.113403 
	C600.536804,259.915924 594.901611,252.019119 588.124329,245.019440 
	C582.448242,239.157028 576.471436,233.585709 570.362061,227.652924 
M648.562927,285.582703 
	C649.089417,283.673798 649.806458,281.590057 647.186279,280.730774 
	C646.142700,280.388519 645.340027,281.474121 645.287048,282.515045 
	C645.189880,284.423218 644.751160,286.791534 648.562927,285.582703 
z"/>
<path fill="#000000" opacity="1.000000" stroke="none" 
	d="
M444.660156,284.341980 
	C427.217407,267.861755 408.765350,252.930923 393.592621,234.618408 
	C379.007660,217.015274 369.072723,197.231171 366.859528,174.313553 
	C363.172607,136.135788 384.226135,104.570328 420.875916,92.470901 
	C450.257050,82.771126 477.342377,88.929359 502.971436,104.651360 
	C504.214142,105.413696 505.600464,106.133499 506.354736,108.209190 
	C503.207184,110.799782 499.790405,113.365219 496.656952,116.239494 
	C488.800964,123.445763 481.013519,130.729691 473.327454,138.116516 
	C470.732635,140.610306 468.527985,141.136368 464.977509,139.552155 
	C453.254547,134.321350 441.166809,131.846451 428.762085,137.493134 
	C425.952393,138.772125 423.289459,140.373489 419.594421,142.339737 
	C423.485443,116.493126 437.589417,101.075417 461.809082,94.425179 
	C444.777252,93.318222 427.926666,104.241745 420.585480,121.587715 
	C406.896912,153.931412 414.017090,182.944778 436.443848,208.652588 
	C450.583893,224.861313 467.033020,238.825165 482.681976,253.552750 
	C490.811859,261.203979 498.925873,268.872162 507.013977,276.567413 
	C507.828064,277.341980 508.412476,278.357971 509.242157,279.443298 
	C504.655396,285.024750 498.968384,289.137085 493.627563,293.569916 
	C487.858704,298.357971 481.441864,302.279663 475.130219,306.335114 
	C471.762848,308.498749 469.437042,308.421570 466.494476,305.412231 
	C459.508575,298.267761 452.135773,291.501587 444.660156,284.341980 
M491.031464,109.703201 
	C492.173309,106.704147 489.588898,106.605186 487.966461,106.013130 
	C486.905823,105.626083 486.070923,106.566040 486.009277,107.617317 
	C485.880676,109.811745 487.726044,110.053291 489.245483,110.470917 
	C489.639587,110.579231 490.149353,110.266647 491.031464,109.703201 
M470.728851,259.097931 
	C471.857269,260.112091 472.995056,261.211304 474.480835,259.661591 
	C475.109619,259.005737 475.246155,258.175354 474.601959,257.466187 
	C473.828247,256.614502 472.894135,255.692841 471.699951,255.857285 
	C470.100800,256.077515 469.455139,257.086243 470.728851,259.097931 
M412.763519,112.480865 
	C411.190765,113.268227 409.973785,114.358971 410.825775,116.251396 
	C411.261353,117.218964 412.463531,117.512222 413.282959,116.709679 
	C414.592896,115.426643 415.777039,113.934097 412.763519,112.480865 
M465.091003,130.384445 
	C467.424927,128.852219 466.165894,127.719643 464.623138,126.732407 
	C463.716278,126.152092 462.500916,126.082176 462.026184,127.120728 
	C460.946075,129.483643 463.052643,129.753647 465.091003,130.384445 
M449.004089,125.594841 
	C450.386719,126.099220 452.035248,126.912964 452.535217,124.739098 
	C452.909912,123.109932 451.568848,122.431786 450.104523,122.460526 
	C448.161804,122.498650 447.305664,123.313255 449.004089,125.594841 
M407.286011,130.290359 
	C409.025513,129.434982 409.614349,128.012863 408.714478,126.356689 
	C408.214294,125.436058 406.932037,125.333778 406.248383,126.242508 
	C405.228333,127.598289 404.615479,129.133942 407.286011,130.290359 
z"/>
<path fill="#000000" opacity="1.000000" stroke="none" 
	d="
M648.886047,125.191238 
	C664.323547,153.171631 661.885559,180.779388 648.646118,208.274506 
	C646.511047,212.708527 644.345154,217.225052 640.950012,220.745560 
	C638.167175,220.123154 637.251892,217.951370 635.865723,216.378174 
	C627.258850,206.610062 617.796326,197.705597 608.147461,189.004990 
	C605.416199,186.542099 604.877258,184.578720 606.317566,180.899963 
	C615.550598,157.318893 614.888306,134.216064 600.720703,112.652565 
	C591.987122,99.359871 579.032532,93.094368 562.763733,93.370529 
	C565.314575,94.387085 563.595276,97.099632 565.425476,98.831009 
	C567.616455,94.861328 570.596191,96.457848 573.551514,97.462784 
	C585.926392,101.670776 595.054688,109.891708 599.992798,121.704231 
	C602.366638,127.382904 605.711426,133.089355 606.016785,139.428085 
	C604.854248,140.675079 603.956665,140.035950 603.128479,139.528778 
	C590.233093,131.631638 576.990051,132.041565 563.408081,137.617584 
	C549.310242,143.405396 537.458984,152.472031 526.299805,162.582840 
	C504.945435,181.930893 485.202942,202.988388 463.403412,221.874542 
	C460.383514,224.490860 458.582977,224.701004 455.608002,221.846970 
	C446.441772,213.053406 437.879822,203.808960 430.762299,193.232254 
	C428.519684,189.899658 428.274475,187.665436 431.544647,184.780212 
	C453.164185,165.705460 472.936768,144.676147 494.171936,125.200111 
	C513.303528,107.653389 534.500000,93.482773 560.546936,88.238258 
	C594.668762,81.367874 630.827820,96.433296 648.886047,125.191238 
M463.825775,210.520157 
	C464.949738,208.866104 464.373688,207.579193 462.717560,206.949936 
	C460.944000,206.276077 460.055847,207.833786 459.099823,208.930084 
	C458.352356,209.787262 458.305023,210.794800 459.125275,211.611145 
	C460.773071,213.251221 462.114716,212.162491 463.825775,210.520157 
M454.558899,175.489044 
	C452.498352,176.264313 450.232391,177.020828 451.325317,179.930008 
	C451.881378,181.410019 453.276398,181.810822 454.552155,180.689774 
	C456.190277,179.250320 458.103210,177.675354 454.558899,175.489044 
M512.395203,126.087509 
	C513.572815,124.516510 513.126526,123.259186 511.447357,122.590752 
	C509.784882,121.928978 508.706940,123.180809 507.685455,124.238968 
	C506.710327,125.249077 506.824982,126.296989 507.794983,127.245583 
	C509.508759,128.921570 510.724487,127.554169 512.395203,126.087509 
M442.334778,191.371124 
	C444.305756,190.478622 446.453430,189.561447 445.299408,186.809265 
	C444.667145,185.301392 443.206268,185.339569 442.037262,186.294418 
	C440.213074,187.784393 439.002808,189.454025 442.334778,191.371124 
M496.583466,134.061035 
	C495.479858,135.324799 494.897095,136.697296 496.479584,137.927536 
	C497.875916,139.013016 498.968048,137.872345 499.977844,137.043549 
	C501.068298,136.148514 501.920502,135.072205 500.849792,133.642014 
	C499.640564,132.026718 498.321350,132.425827 496.583466,134.061035 
M484.509308,147.185699 
	C486.551300,150.116119 488.153259,148.187469 489.612823,146.612030 
	C490.546692,145.604034 490.230316,144.346893 489.206573,143.555862 
	C487.003571,141.853622 485.990936,143.806122 484.879456,145.176834 
	C484.592224,145.531097 484.556641,146.089401 484.509308,147.185699 
M465.629547,164.677277 
	C464.828827,165.236816 463.895874,165.676529 463.256348,166.382187 
	C462.106201,167.651245 461.804962,169.137039 463.505371,170.181946 
	C464.983002,171.089966 466.049744,169.963608 466.889984,168.937790 
	C468.153046,167.395813 468.150635,165.908646 465.629547,164.677277 
M620.320740,155.410660 
	C620.475220,157.050110 621.359070,157.897186 622.971619,157.392395 
	C624.485840,156.918335 624.686707,155.550110 624.599731,154.148102 
	C624.511597,152.728638 623.600769,152.059647 622.333923,152.005753 
	C620.454041,151.925812 620.354614,153.349838 620.320740,155.410660 
M619.861511,138.474411 
	C619.085144,140.505493 619.002991,142.528656 621.393188,143.314651 
	C622.998474,143.842514 623.700806,142.416916 623.681030,140.954453 
	C623.652100,138.818909 623.382507,136.783279 619.861511,138.474411 
M474.691437,155.189819 
	C473.577423,156.337357 472.637878,157.547424 474.144287,159.024292 
	C474.963531,159.827484 475.983215,159.767563 476.889648,159.152023 
	C478.046326,158.366547 479.015228,157.309814 478.483185,155.822876 
	C477.922821,154.256775 476.673706,154.024078 474.691437,155.189819 
M620.265991,124.627823 
	C618.304565,122.933868 616.933105,123.611748 616.502380,125.884109 
	C616.221497,127.365974 616.977905,129.165451 618.621887,129.172501 
	C621.343445,129.184143 620.798767,127.005608 620.265991,124.627823 
M649.203369,149.569366 
	C649.983459,147.430771 649.689575,145.516953 647.377686,144.753082 
	C646.026550,144.306656 645.258972,145.549377 645.347168,146.841980 
	C645.484375,148.852966 645.606323,151.102905 649.203369,149.569366 
M512.461792,159.448044 
	C513.139038,162.013565 514.616211,162.049896 516.417480,160.611252 
	C517.524841,159.726776 518.302673,158.356277 517.112427,157.254395 
	C514.918030,155.222916 513.688477,157.106476 512.461792,159.448044 
M637.118347,207.906189 
	C640.026428,208.629684 640.489075,206.605667 640.663147,204.558456 
	C640.756531,203.459518 639.843689,202.556992 638.755371,202.776703 
	C636.827515,203.165909 636.250122,204.716675 636.334229,206.536362 
	C636.348755,206.850311 636.538513,207.156174 637.118347,207.906189 
M494.288635,181.401489 
	C495.971344,180.201324 497.666931,178.922821 495.892059,176.654984 
	C494.942139,175.441132 493.795135,175.967621 492.976654,176.967957 
	C491.560852,178.698380 490.793762,180.411026 494.288635,181.401489 
M474.573730,199.953979 
	C474.975922,198.521255 474.825104,197.153305 473.179596,196.844086 
	C471.673706,196.561111 470.884735,197.886948 470.194427,199.006607 
	C469.620483,199.937561 469.597412,200.953796 470.552399,201.643997 
	C472.226593,202.854065 473.256927,201.630661 474.573730,199.953979 
M616.221008,179.767365 
	C614.967285,181.172211 613.478149,182.673325 615.793945,184.271103 
	C617.157104,185.211609 618.378357,184.514282 618.962524,183.025497 
	C619.769653,180.968491 619.728394,179.326492 616.221008,179.767365 
M503.487122,166.897430 
	C502.309052,167.803040 500.978485,168.707108 502.200531,170.421326 
	C502.781677,171.236572 503.679626,171.734940 504.738892,171.268112 
	C505.970001,170.725525 507.168427,169.869827 507.111786,168.473190 
	C507.037659,166.644730 505.802246,166.016037 503.487122,166.897430 
M615.044495,114.739357 
	C615.513184,112.413940 614.737427,110.820847 612.269897,110.517235 
	C611.377380,110.407417 610.549011,111.228409 610.726013,112.097610 
	C611.133057,114.096542 611.711548,116.178307 615.044495,114.739357 
M527.555237,147.265427 
	C524.740173,146.540375 523.700500,148.169556 523.443909,150.542694 
	C523.352478,151.389175 524.202942,152.289139 524.990845,152.045837 
	C527.026062,151.417419 529.138245,150.591583 527.555237,147.265427 
M485.949493,189.174515 
	C485.938049,186.581253 484.675598,185.892365 482.592712,187.272705 
	C481.457245,188.025177 479.814331,189.282425 481.220428,190.816895 
	C483.014893,192.775131 484.377472,190.938690 485.949493,189.174515 
M645.627808,189.746689 
	C642.570374,188.838196 642.325134,190.952972 642.257446,193.022476 
	C642.222046,194.106094 643.072449,195.121170 644.115906,194.866821 
	C646.657959,194.247192 646.460876,192.198822 645.627808,189.746689 
M618.966309,170.552414 
	C621.086060,172.148163 622.275269,171.376892 622.671082,169.000290 
	C622.899048,167.631271 622.675110,166.026093 620.979004,166.079910 
	C618.558289,166.156754 618.443115,168.111633 618.966309,170.552414 
M649.733337,178.966858 
	C650.331116,177.182877 651.101868,175.211502 648.314758,174.720413 
	C646.897827,174.470764 646.316467,175.738525 646.288879,176.995651 
	C646.242493,179.116104 646.714966,180.754669 649.733337,178.966858 
M521.161011,118.074753 
	C523.129089,118.151985 524.411316,117.326180 524.260864,115.245987 
	C524.176086,114.073380 523.203369,113.577393 522.084961,114.089722 
	C520.455994,114.835930 519.076965,115.784958 521.161011,118.074753 
M650.766724,161.815521 
	C650.119019,160.336868 649.059814,159.692200 647.884216,161.061768 
	C646.983826,162.110748 646.993835,163.665985 648.385742,164.357666 
	C650.027466,165.173492 650.660889,163.974670 650.766724,161.815521 
z"/>
<path fill="#000000" opacity="1.000000" stroke="none" 
	d="
M462.714783,317.658997 
	C480.663818,311.152832 495.272888,300.105042 508.731384,287.574280 
	C527.013489,270.552399 544.900085,253.102295 562.782715,235.657928 
	C565.909668,232.607620 567.934448,232.063278 571.348816,235.296341 
	C580.924805,244.363876 590.436035,253.402237 596.882385,265.145813 
	C598.208252,267.561249 598.250671,269.194641 596.154785,271.239746 
	C581.253540,285.779877 566.706665,300.691925 551.564880,314.974426 
	C535.937744,329.714569 519.846252,343.960693 500.660889,354.162476 
	C474.870026,367.876678 448.123352,373.133148 419.889191,362.803680 
	C394.966858,353.685883 380.164703,335.113373 372.836700,310.174835 
	C368.425262,295.161896 368.864532,279.934784 371.905853,264.716187 
	C372.057648,263.956726 372.566315,263.268555 373.049316,262.251190 
	C374.552551,263.418732 374.148010,264.738159 374.030975,265.918915 
	C370.619659,300.334747 393.274200,319.759857 421.536804,322.612427 
	C435.426971,324.014374 449.149506,322.834503 462.714783,317.658997 
M494.052582,315.503693 
	C495.557709,314.743958 497.061584,313.888824 496.465393,311.852966 
	C496.098724,310.600708 494.970062,310.106995 493.725281,310.477814 
	C492.300842,310.902100 490.838837,311.617493 490.613068,313.228455 
	C490.343567,315.151611 491.686218,315.727966 494.052582,315.503693 
M532.846191,315.331573 
	C531.616577,316.463165 530.174438,317.585602 531.400330,319.489594 
	C531.983032,320.394684 533.003296,320.688263 534.010986,320.072906 
	C535.275757,319.300507 536.789429,318.533325 536.582275,316.762970 
	C536.366882,314.921722 535.203613,314.222260 532.846191,315.331573 
M527.759338,280.958282 
	C526.591736,282.191711 526.154602,283.519989 527.761963,284.647247 
	C529.338135,285.752655 530.501953,284.626617 531.531555,283.558472 
	C532.341553,282.718201 533.047913,281.688232 532.296692,280.524750 
	C531.019592,278.546661 529.590332,279.401398 527.759338,280.958282 
M520.281006,294.125031 
	C521.428101,292.729462 521.553162,291.353394 519.787842,290.480804 
	C518.399536,289.794525 517.246948,290.636536 516.348938,291.694641 
	C515.562683,292.621094 515.020935,293.693481 515.970886,294.789459 
	C517.281433,296.301514 518.584412,295.649078 520.281006,294.125031 
M505.546722,301.228241 
	C504.445221,302.395264 502.757050,303.402863 504.123322,305.363800 
	C504.777649,306.302917 505.779816,306.424011 506.753998,305.827362 
	C507.898468,305.126373 509.127625,304.275787 509.087677,302.831451 
	C509.036652,300.986877 507.958038,300.163635 505.546722,301.228241 
M483.358490,321.330475 
	C483.237457,318.954620 482.254059,317.748383 479.891479,319.142578 
	C478.683594,319.855377 476.793152,320.910065 478.045044,322.566467 
	C479.731354,324.797638 481.540710,323.334503 483.358490,321.330475 
M541.460144,268.374390 
	C539.465210,269.119171 537.849915,270.247650 538.839722,272.646271 
	C539.356750,273.899323 540.725952,273.969391 541.702637,273.050018 
	C543.127930,271.708374 544.836365,270.221710 541.460144,268.374390 
M544.547058,308.972778 
	C546.776733,308.771606 548.032715,307.616302 548.230591,305.398804 
	C546.996887,303.828033 545.603760,303.941650 544.341125,304.956696 
	C543.049194,305.995300 542.692444,307.337250 544.547058,308.972778 
M519.122437,327.509583 
	C518.341614,328.381348 517.370544,329.338715 518.652405,330.404816 
	C519.623901,331.212738 520.842407,330.956177 521.871277,330.292755 
	C522.748352,329.727112 523.410034,328.912109 522.869080,327.832489 
	C522.116150,326.329956 520.925354,326.252167 519.122437,327.509583 
M509.022888,339.145538 
	C509.448761,336.349091 507.849640,336.494690 506.074890,337.227905 
	C504.932739,337.699829 503.934509,338.773315 504.805298,339.948822 
	C506.006439,341.570282 507.419983,340.620728 509.022888,339.145538 
z"/>
<path fill="#000000" opacity="1.000000" stroke="none" 
	d="
M533.356567,76.680878 
	C510.093079,73.502335 487.805084,75.674263 466.083984,83.458046 
	C464.859741,83.896751 463.438538,84.315239 462.206146,84.122383 
	C443.710327,81.227982 426.133087,84.703819 409.016571,91.571068 
	C408.570801,91.749916 408.054962,91.771645 407.567230,91.815559 
	C407.451630,91.825974 407.317413,91.629745 406.623993,91.071373 
	C420.536285,78.724274 436.521179,70.227051 453.599731,63.765629 
	C489.382538,50.227749 525.705505,49.992989 562.347778,60.076294 
	C583.597900,65.923958 611.675964,82.193336 619.216675,90.809395 
	C617.584473,91.844986 616.367249,90.553749 615.074280,90.038048 
	C598.960632,83.611374 582.489990,79.203094 564.977600,82.370338 
	C559.188171,83.417404 554.205261,81.067520 548.896179,80.015800 
	C543.843750,79.014931 538.822021,77.859398 533.356567,76.680878 
z"/>
<path fill="#000000" opacity="1.000000" stroke="none" 
	d="
M506.241150,435.830750 
	C508.847137,441.946991 511.324036,447.703308 513.766846,453.380402 
	C516.957581,452.692352 517.186401,450.406708 517.913330,448.714661 
	C522.382263,438.312225 526.845947,427.903687 531.035095,417.387115 
	C532.418396,413.914337 534.359680,412.606232 538.111450,412.657135 
	C553.266052,412.862762 550.941772,410.939880 551.041870,425.679077 
	C551.144775,440.836731 550.883057,455.996918 550.997070,471.154358 
	C551.032104,475.811401 549.319275,477.517426 544.699524,476.748230 
	C541.944214,476.289490 539.095215,476.393707 535.512390,476.203705 
	C535.512390,465.889404 535.512390,455.688782 535.512390,445.395721 
	C532.698669,445.534607 532.674316,447.317139 532.171814,448.553619 
	C528.912903,456.572998 525.500854,464.541321 522.598450,472.689972 
	C521.092834,476.917084 518.111816,476.937988 514.669800,476.926147 
	C511.215820,476.914276 508.291595,476.807037 506.778748,472.598663 
	C503.361389,463.092499 499.433411,453.769897 495.516632,443.876251 
	C493.672974,445.827545 494.205383,447.541016 494.190338,449.056854 
	C494.114227,456.719055 494.092194,464.382355 494.131378,472.044861 
	C494.146454,474.992340 493.170868,476.634796 489.908936,476.940033 
	C479.162903,477.945557 478.673523,477.563263 478.688507,466.765381 
	C478.710663,450.773315 478.820343,434.779724 478.625244,418.790039 
	C478.571136,414.358398 479.771484,412.481659 484.522552,412.666504 
	C498.591187,413.213776 495.124329,410.358795 500.963074,423.546509 
	C502.715759,427.505188 504.397736,431.495178 506.241150,435.830750 
z"/>
<path fill="#000000" opacity="1.000000" stroke="none" 
	d="
M345.741272,187.993835 
	C349.464172,171.876907 354.826782,156.847000 363.188232,142.919708 
	C364.404999,147.608704 362.708038,151.983292 362.049072,156.345840 
	C360.294983,167.958344 361.334564,179.374435 364.732086,190.358841 
	C367.035858,197.807175 367.137726,204.948425 366.091980,212.392670 
	C364.265106,225.397461 365.559723,238.258621 368.131165,251.026825 
	C368.831390,254.503708 368.879944,257.720581 367.846191,261.240723 
	C363.702637,275.350189 363.152985,289.689270 366.037140,304.137970 
	C366.389099,305.901215 366.619507,307.688690 366.134369,309.591888 
	C343.868378,271.876862 336.376648,231.603668 345.741272,187.993835 
z"/>
<path fill="#000000" opacity="1.000000" stroke="none" 
	d="
M683.036987,203.183533 
	C687.424683,240.502991 680.446350,275.018280 661.971252,308.375519 
	C660.069763,304.407166 661.528442,301.844208 661.846252,299.353088 
	C663.659363,285.138794 663.247559,271.143707 658.563721,257.475891 
	C656.920044,252.679657 659.362549,248.331772 659.871033,243.790680 
	C661.361023,230.485504 661.428101,217.249374 659.143494,204.036301 
	C658.742920,201.719620 658.492432,199.442719 659.254333,197.134354 
	C665.116272,179.375305 666.595032,161.394226 661.945496,143.105804 
	C661.878967,142.844223 662.125793,142.502930 662.684631,140.814209 
	C673.924011,160.748978 679.963196,181.227219 683.036987,203.183533 
z"/>
<path fill="#000000" opacity="1.000000" stroke="none" 
	d="
M391.275513,239.745682 
	C400.048126,249.813431 409.532349,258.674377 419.037903,267.508362 
	C421.000488,269.332306 422.161926,271.014832 421.323517,273.973511 
	C416.849213,289.762604 418.466461,304.261139 430.888885,316.276459 
	C431.102356,316.482971 431.140411,316.870758 431.257416,317.175110 
	C421.438232,321.210693 395.845520,313.296082 385.584991,298.403442 
	C374.566284,282.410309 370.018005,250.257965 385.753418,234.603577 
	C388.482269,235.138321 389.141693,238.004333 391.275513,239.745682 
M380.491333,267.734680 
	C382.284302,269.856659 383.778992,269.671265 384.723236,267.047791 
	C385.268341,265.533234 385.952576,263.430115 383.703156,262.991455 
	C380.655243,262.397064 380.574097,264.979736 380.491333,267.734680 
M386.989960,248.999374 
	C385.699799,250.577515 384.199249,252.288956 386.336243,254.109497 
	C387.637512,255.218018 388.884827,254.243469 389.533569,252.923126 
	C390.588135,250.776794 390.582672,249.000000 386.989960,248.999374 
M409.299561,285.403778 
	C407.067291,285.273499 406.209137,286.437561 406.655304,288.487427 
	C406.905121,289.635315 408.019318,290.077698 409.027313,289.691620 
	C411.175568,288.868927 410.998505,287.340912 409.299561,285.403778 
M408.660278,299.450409 
	C408.044861,301.290466 408.373169,302.847137 410.398560,303.362854 
	C411.447662,303.630005 412.455017,302.827789 412.275848,301.644348 
	C412.022308,299.969757 411.525879,298.234192 408.660278,299.450409 
M409.513519,275.883575 
	C411.839600,276.820831 412.468292,275.435486 412.477692,273.559143 
	C412.483154,272.465179 411.551758,271.604553 410.557007,271.815674 
	C408.474792,272.257507 408.285339,273.768646 409.513519,275.883575 
z"/>
<path fill="#000000" opacity="1.000000" stroke="none" 
	d="
M310.650269,433.822510 
	C304.421021,426.666412 297.901489,424.723480 290.466766,427.609924 
	C283.699951,430.237000 280.040131,436.815338 280.280792,445.918884 
	C280.494781,454.015564 284.445160,460.035278 291.285248,462.038788 
	C296.985718,463.708435 303.223206,463.914948 307.061676,459.018738 
	C312.909332,451.559509 320.027405,454.605988 327.000793,454.424805 
	C326.702393,467.260559 312.257446,477.564575 295.713745,477.318848 
	C277.575409,477.049438 263.838196,463.164215 263.824646,445.086060 
	C263.810150,425.798553 277.754852,411.731323 296.824738,411.795990 
	C312.428497,411.848877 326.943481,422.737183 327.022400,435.004181 
	C321.644592,434.814514 316.249115,436.179749 310.650269,433.822510 
z"/>
<path fill="#000000" opacity="1.000000" stroke="none" 
	d="
M734.005981,439.666687 
	C729.573181,441.791901 728.005371,445.050354 728.112061,449.541260 
	C728.285950,456.865875 728.035095,464.200012 728.171326,471.526276 
	C728.239685,475.204254 727.097046,476.987946 723.077515,477.083740 
	C712.662415,477.331970 712.674805,477.469666 712.682495,467.015411 
	C712.694946,450.191711 712.663269,433.367920 712.715027,416.544373 
	C712.733826,410.414734 713.304504,409.995789 720.359924,409.938110 
	C727.472168,409.879974 727.802490,410.220062 728.135864,416.413239 
	C728.357849,420.536469 727.636780,424.709747 728.594788,428.748444 
	C730.614990,429.618134 731.915405,428.203705 733.369629,427.595490 
	C747.562561,421.659302 761.109497,429.597137 762.090393,444.935028 
	C762.673889,454.058655 762.165833,463.250305 762.211304,472.411041 
	C762.227051,475.591034 760.657349,476.782440 757.609741,476.942261 
	C748.657715,477.411774 747.045593,476.028687 746.873047,467.047363 
	C746.767517,461.552124 746.819824,456.054016 746.762329,450.557648 
	C746.668823,441.621460 743.195618,438.541473 734.005981,439.666687 
z"/>
<path fill="#000000" opacity="1.000000" stroke="none" 
	d="
M597.323669,475.147583 
	C596.273926,472.098663 594.812134,473.538055 593.353638,474.286804 
	C583.846619,479.167572 573.717224,478.052155 566.499512,471.367554 
	C558.753540,464.193695 556.345520,450.643250 560.901245,439.864929 
	C564.686096,430.910370 573.348206,425.403564 583.036560,425.740875 
	C587.679443,425.902557 591.717651,427.769104 595.557434,430.116699 
	C598.223145,427.103638 607.396240,425.354767 610.566528,427.128967 
	C612.190552,428.037842 612.134705,429.576691 612.140747,431.041931 
	C612.197632,444.849915 612.177368,458.658325 612.273132,472.465942 
	C612.293762,475.438049 611.169617,476.940308 608.138489,476.437103 
	C604.611145,475.851593 600.839722,477.891174 597.323669,475.147583 
M584.735229,463.756165 
	C589.486572,463.982605 593.326782,462.358948 595.397522,457.902069 
	C597.565979,453.234894 597.494324,448.475098 594.683105,444.060333 
	C590.760193,437.899719 581.481262,437.341431 577.056946,442.854156 
	C572.014893,449.136627 573.286255,462.372925 584.735229,463.756165 
z"/>
<path fill="#000000" opacity="1.000000" stroke="none" 
	d="
M465.914093,435.227600 
	C468.957672,439.588654 470.360260,444.089905 470.603882,449.048370 
	C470.913849,455.357788 470.083313,456.410126 463.606506,455.859436 
	C455.793762,455.195129 447.980835,455.464111 440.166595,455.431641 
	C438.700043,455.425568 437.156952,455.154724 435.429077,456.365540 
	C435.009857,459.559540 436.823975,461.763977 439.550415,463.274994 
	C443.157806,465.274231 447.383362,465.801422 450.342896,462.947205 
	C456.044586,457.448303 462.431091,460.445068 469.142395,459.836243 
	C468.353546,466.044250 464.912842,469.774536 460.765839,472.845428 
	C450.250458,480.632233 432.817078,478.241089 424.574829,468.049927 
	C416.287079,457.802521 417.469269,441.101135 427.134430,432.152588 
	C437.141052,422.887848 456.901459,423.376526 465.914093,435.227600 
M438.391479,445.808807 
	C443.598907,445.808807 448.806335,445.808807 454.449982,445.808807 
	C453.374512,440.633148 450.335785,438.975952 446.562012,438.420227 
	C442.515686,437.824463 438.987610,438.967682 436.595581,442.513153 
	C435.669067,443.886505 435.210541,445.333496 438.391479,445.808807 
z"/>
<path fill="#000000" opacity="1.000000" stroke="none" 
	d="
M593.756653,323.636871 
	C583.691833,341.440094 568.776428,352.714325 550.023438,359.245117 
	C548.463257,359.788422 546.876526,360.549652 545.178284,360.016174 
	C536.744324,357.366882 528.821472,353.699127 521.922180,348.641785 
	C521.641968,346.420288 523.057495,345.868805 524.074585,345.127625 
	C535.395874,336.877472 545.870728,327.656006 555.586731,317.579224 
	C557.357544,315.742676 558.935425,314.582428 561.607727,315.840118 
	C572.174927,320.813110 583.011536,321.479767 594.083618,317.592896 
	C594.485229,317.451935 595.009216,317.659851 595.527710,317.710175 
	C596.188965,320.000000 594.622375,321.537140 593.756653,323.636871 
z"/>
<path fill="#000000" opacity="1.000000" stroke="none" 
	d="
M403.053314,476.930359 
	C398.181183,477.418304 396.281921,475.816010 396.554901,471.033234 
	C396.943054,464.232056 396.794220,457.387451 396.590332,450.569946 
	C396.464752,446.372101 395.846893,442.137085 391.394714,439.988464 
	C385.117340,436.958893 378.577301,440.735565 378.207794,447.956207 
	C377.816956,455.593964 377.854584,463.265198 378.016663,470.915222 
	C378.110229,475.331482 376.662750,477.174103 371.978302,477.081635 
	C362.106415,476.886810 362.108673,477.091339 362.112030,467.363434 
	C362.115967,456.046478 362.065796,444.729279 362.120270,433.412598 
	C362.152344,426.752960 362.246094,426.657227 368.766602,426.669220 
	C372.453247,426.676025 376.489105,425.478333 379.151276,429.373718 
	C383.891205,426.873230 388.601379,425.369080 393.748474,425.808777 
	C405.028320,426.772308 411.733917,434.673859 412.173523,447.906464 
	C412.399963,454.721558 412.225647,461.552612 412.131958,468.375092 
	C412.015015,476.892548 411.970367,476.891937 403.053314,476.930359 
z"/>
<path fill="#000000" opacity="1.000000" stroke="none" 
	d="
M677.801208,463.585327 
	C682.258850,464.419495 685.685730,463.585358 688.469177,460.209869 
	C690.332458,457.950134 701.980530,456.959229 704.080627,458.585846 
	C705.719299,459.855164 704.809448,461.280212 704.290833,462.630280 
	C701.213623,470.641296 695.204163,475.392548 686.967407,476.816620 
	C676.325317,478.656464 666.447449,476.753845 659.811646,467.353882 
	C653.296631,458.125031 652.999573,448.069641 658.271667,438.093903 
	C663.299683,428.579926 674.225281,423.981537 686.114868,426.002502 
	C696.112854,427.701996 703.121521,434.246582 704.834839,443.483032 
	C699.439148,446.437683 691.540588,445.570801 687.214905,441.549255 
	C681.801270,436.516205 673.563904,439.030304 671.380615,446.381989 
	C669.127686,453.968170 671.266113,460.042267 677.801208,463.585327 
z"/>
<path fill="#000000" opacity="1.000000" stroke="none" 
	d="
M650.097534,433.696228 
	C649.930054,436.005463 649.839233,438.147949 647.166504,437.715179 
	C645.000122,437.364410 644.375671,435.648346 644.638794,433.546997 
	C644.820496,432.096771 645.300476,430.451141 643.573853,429.573334 
	C643.105042,429.335022 642.182068,429.448273 641.750244,429.774445 
	C640.079224,431.036530 640.431458,432.749878 641.247253,434.266693 
	C642.614258,436.808136 640.300293,438.688263 640.255554,440.894531 
	C640.127441,447.208923 640.089539,453.533142 640.306946,459.843475 
	C640.430969,463.442474 643.258484,463.916931 646.107117,463.679169 
	C649.941895,463.359100 651.255737,465.038147 650.668640,468.703796 
	C650.407288,470.336151 650.419556,472.017731 650.379456,473.678680 
	C650.338440,475.373230 649.750305,476.774750 647.921814,476.840393 
	C641.770996,477.061188 635.511047,477.353729 630.182739,473.511871 
	C626.626831,470.947876 624.772461,467.248871 624.687927,462.807953 
	C624.605591,458.484283 624.481079,454.153046 624.642578,449.835144 
	C624.851562,444.248871 624.443604,439.153778 620.271179,434.613708 
	C617.198669,431.270477 618.288452,428.610138 622.648926,426.558960 
	C625.334351,425.295776 624.430542,422.957397 624.688416,420.937744 
	C624.986084,418.607117 623.698242,415.383057 626.957764,414.513611 
	C630.622742,413.535980 634.615417,413.112518 638.212402,414.672455 
	C640.291992,415.574310 639.874268,418.109619 639.734863,420.080170 
	C639.415527,424.594299 640.359009,427.495483 645.978943,426.782562 
	C651.207275,426.119324 649.994019,430.277435 650.097534,433.696228 
z"/>
<path fill="#000000" opacity="1.000000" stroke="none" 
	d="
M335.933350,463.973999 
	C335.940735,452.991882 336.072021,442.502350 335.888306,432.018372 
	C335.817780,427.994720 337.147125,426.329529 341.307800,426.394714 
	C352.015503,426.562500 352.070770,424.050812 352.038605,437.034363 
	C352.010132,448.520325 351.907898,460.007385 352.033173,471.491821 
	C352.077118,475.518066 350.634827,477.129303 346.484344,477.076233 
	C334.288879,476.920441 336.068542,477.637512 335.933350,463.973999 
z"/>
<path fill="#000000" opacity="1.000000" stroke="none" 
	d="
M310.772522,505.004578 
	C310.775085,502.353241 310.705383,500.187561 310.805542,498.029755 
	C310.878693,496.453522 310.436920,494.435242 312.685638,493.953979 
	C315.082977,493.440948 315.734100,495.414856 316.545776,497.052582 
	C318.523956,501.044189 319.799042,505.397919 323.014069,509.715332 
	C325.244659,505.145294 327.249176,501.053680 329.238708,496.954803 
	C330.042267,495.299316 330.717865,493.333221 333.098816,493.866180 
	C335.600891,494.426300 335.034454,496.659973 335.062469,498.377655 
	C335.138306,503.033691 335.128204,507.692932 335.039581,512.348755 
	C335.006470,514.089050 335.338531,516.546631 332.711304,516.483704 
	C330.395050,516.428162 330.854797,514.121948 330.795593,512.554932 
	C330.702484,510.091583 330.770844,507.622131 330.770844,504.604675 
	C327.993011,507.491791 327.255493,510.772797 325.805847,513.667114 
	C325.153534,514.969543 324.728577,516.657227 322.827667,516.588745 
	C321.217651,516.530823 320.783600,515.056152 320.210480,513.890137 
	C318.751617,510.922211 317.351501,507.925385 315.027466,504.985474 
	C315.027466,508.004822 315.108032,511.027283 314.991241,514.042114 
	C314.938049,515.415588 314.381134,516.809387 312.621307,516.605591 
	C311.213593,516.442688 310.874817,515.184753 310.845978,513.975159 
	C310.778564,511.149017 310.792206,508.320923 310.772522,505.004578 
z"/>
<path fill="#000000" opacity="1.000000" stroke="none" 
	d="
M497.498566,499.069519 
	C501.008484,497.959290 504.191467,496.892731 507.255798,499.362305 
	C508.846375,500.644165 509.999420,499.340515 511.323730,498.803864 
	C517.349731,496.361725 521.972900,499.318451 522.271973,505.855713 
	C522.393311,508.507416 522.316101,511.170013 522.271790,513.826660 
	C522.252197,515.003174 522.138611,516.391296 520.636475,516.480042 
	C518.708679,516.593933 518.770752,514.971985 518.726013,513.661987 
	C518.646667,511.338867 518.760071,509.004608 518.586304,506.690552 
	C518.393799,504.127686 517.275085,502.088013 514.342407,502.165863 
	C511.449860,502.242645 510.372955,504.220673 510.294403,506.856873 
	C510.230133,509.014496 510.297760,511.176453 510.213837,513.332886 
	C510.156708,514.801758 510.237640,516.630859 508.077942,516.542786 
	C506.361908,516.472778 506.184235,514.895874 506.120575,513.560486 
	C506.017822,511.405182 506.053284,509.243622 506.004852,507.085297 
	C505.944672,504.402588 505.357452,501.801086 502.124969,501.728760 
	C498.904175,501.656708 498.135834,504.163910 498.038300,506.888916 
	C497.949280,509.376617 497.953125,511.869751 497.784851,514.351624 
	C497.702148,515.570679 497.134338,516.661499 495.662476,516.635437 
	C494.462708,516.614319 493.864349,515.728333 493.851166,514.665100 
	C493.793701,510.018311 493.724670,505.367157 493.872192,500.724365 
	C493.938690,498.630615 495.517120,498.543854 497.498566,499.069519 
z"/>
<path fill="#000000" opacity="1.000000" stroke="none" 
	d="
M525.823853,507.051941 
	C525.865295,504.754578 525.850342,502.920654 525.967102,501.095093 
	C526.063049,499.595276 526.833496,498.440277 528.458069,498.576294 
	C532.269348,498.895416 536.331482,496.335083 539.906189,499.734467 
	C541.413940,501.168365 542.609497,499.354584 543.885193,498.803223 
	C548.723145,496.712280 552.990601,498.726440 554.301575,503.814789 
	C555.185791,507.246399 555.062134,510.752106 554.747986,514.242737 
	C554.639038,515.453735 554.179199,516.622681 552.678528,516.573792 
	C551.166504,516.524475 550.841248,515.320557 550.799316,514.104736 
	C550.713257,511.609558 550.697083,509.111572 550.679749,506.614594 
	C550.660828,503.896851 549.389160,501.956055 546.679016,501.776733 
	C543.725647,501.581268 542.721191,503.969910 542.440308,506.380127 
	C542.152893,508.846985 542.356079,511.367889 542.268188,513.862427 
	C542.220886,515.203552 542.119873,516.783142 540.251831,516.669006 
	C538.392090,516.555420 538.559937,514.963196 538.543152,513.630188 
	C538.509766,510.970276 538.716980,508.278687 538.371155,505.660065 
	C538.073059,503.402496 536.719543,501.434662 534.115662,501.576599 
	C531.552673,501.716278 530.418457,503.630737 530.297852,506.039642 
	C530.164734,508.697906 530.234863,511.365723 530.143616,514.026917 
	C530.102661,515.224426 529.816833,516.505920 528.346985,516.604553 
	C526.648193,516.718567 526.041260,515.443665 525.958313,514.007629 
	C525.833618,511.849396 525.861450,509.682343 525.823853,507.051941 
z"/>
<path fill="#000000" opacity="1.000000" stroke="none" 
	d="
M342.479065,422.622925 
	C336.468231,420.529572 333.923340,416.807251 335.096466,412.284760 
	C336.222900,407.942291 340.835114,405.095001 345.552399,405.830048 
	C349.982269,406.520264 353.537018,410.747162 353.183136,414.903687 
	C352.774597,419.702911 349.116516,422.468658 342.479065,422.622925 
z"/>
<path fill="#000000" opacity="1.000000" stroke="none" 
	d="
M429.598053,497.802460 
	C430.391998,499.971344 430.826599,502.216705 429.489990,503.415558 
	C425.256836,507.212402 427.096039,510.642273 429.532623,514.232422 
	C429.711548,514.496094 429.821381,514.846985 429.843170,515.165527 
	C429.864288,515.474976 429.730560,515.794922 429.596619,516.437622 
	C423.331757,517.521484 424.738678,508.484314 419.498291,508.395477 
	C417.527435,510.047516 418.489990,512.225891 418.136108,514.094055 
	C417.905853,515.309692 417.595337,516.429077 416.081482,516.434753 
	C414.861084,516.439331 414.184937,515.538025 414.176575,514.522095 
	C414.124817,508.207855 414.144562,501.892090 414.243835,495.578430 
	C414.264282,494.278931 415.316956,493.676453 416.543304,493.297729 
	C420.556366,492.058411 426.726654,494.003052 429.598053,497.802460 
M418.695923,502.880554 
	C420.775116,504.665710 422.963013,504.404175 424.911194,502.851349 
	C426.184662,501.836273 426.170441,500.209534 425.433258,498.796478 
	C424.429657,496.872772 422.422424,496.808502 420.697235,496.931549 
	C416.909943,497.201660 418.535828,500.130707 418.695923,502.880554 
z"/>
<path fill="#000000" opacity="1.000000" stroke="none" 
	d="
M612.820679,494.150146 
	C614.260620,491.454315 615.956360,491.869995 616.053101,494.137390 
	C616.367126,501.499084 616.170532,508.882599 616.170532,516.092896 
	C613.438293,516.914124 611.663452,515.444397 609.572693,516.451843 
	C605.807861,518.265991 602.290405,516.900330 599.864441,513.717529 
	C597.251160,510.289032 596.837830,506.397461 599.129456,502.523834 
	C601.195618,499.031372 604.391968,497.122650 608.313782,498.083679 
	C611.909485,498.964752 612.876953,497.738220 612.820679,494.150146 
M602.407043,509.870453 
	C604.433594,513.732849 607.623108,514.022827 610.643555,511.691956 
	C613.405762,509.560272 613.202332,506.456909 611.001953,503.751770 
	C609.446167,501.839142 607.251282,501.569183 605.115234,502.412933 
	C602.060242,503.619720 601.899353,506.299103 602.407043,509.870453 
z"/>
<path fill="#000000" opacity="1.000000" stroke="none" 
	d="
M638.031494,503.421753 
	C638.026978,505.194366 638.171143,506.545135 637.995422,507.852936 
	C637.596252,510.823486 639.544983,515.635132 636.108521,516.295471 
	C631.954529,517.093689 626.924316,518.954834 622.763367,515.318176 
	C619.314148,512.303589 618.946960,508.373932 619.867188,504.328003 
	C620.782593,500.303284 623.732239,498.244293 627.770813,497.859192 
	C630.531128,497.596008 633.022156,499.199493 636.049438,498.641632 
	C638.222900,498.241119 637.893982,501.221313 638.031494,503.421753 
M623.338013,507.513184 
	C623.582642,511.151733 625.177734,513.788696 629.152771,513.182617 
	C632.937134,512.605652 634.166382,509.709503 633.578003,506.114044 
	C633.157898,503.546967 631.459961,501.775269 628.953918,501.624786 
	C625.609253,501.423920 623.941284,503.646576 623.338013,507.513184 
z"/>
<path fill="#000000" opacity="1.000000" stroke="none" 
	d="
M439.271362,509.336060 
	C436.673187,511.020966 438.654297,511.914185 439.635864,512.744141 
	C441.043915,513.934692 442.664642,513.894653 444.267151,512.927185 
	C445.828552,511.984497 447.045471,509.683594 449.376892,511.519440 
	C449.920715,513.350647 448.692505,514.348572 447.579285,515.309875 
	C443.897797,518.488831 437.815094,517.612549 434.765045,513.514526 
	C431.425781,509.027832 432.465668,502.287842 436.949646,499.355804 
	C441.274902,496.527527 446.989807,497.850647 449.519470,502.265930 
	C452.037903,506.661591 450.638458,509.169678 445.604126,509.253967 
	C443.610077,509.287384 441.615234,509.273560 439.271362,509.336060 
M437.963959,504.589661 
	C440.593964,506.744904 443.174713,505.846893 446.298370,504.687225 
	C443.391937,501.463379 440.870544,501.005524 437.963959,504.589661 
z"/>
<path fill="#000000" opacity="1.000000" stroke="none" 
	d="
M385.483002,502.690002 
	C387.911255,498.657745 391.235046,497.222778 395.405304,498.056885 
	C398.760468,498.727905 401.070953,500.832642 401.956543,504.173828 
	C402.783020,507.291840 402.043854,509.425140 398.192047,509.289246 
	C395.243073,509.185181 392.287537,509.268494 388.927155,509.268494 
	C389.556915,512.937805 391.789917,513.543701 394.358246,513.448303 
	C396.577820,513.365906 397.685486,509.893341 400.821106,511.429779 
	C400.847168,515.709595 397.710846,516.697266 394.445862,517.143555 
	C389.879883,517.767761 385.643890,514.727905 384.807648,510.382751 
	C384.335938,507.931824 384.328888,505.425995 385.483002,502.690002 
M389.876617,503.130585 
	C389.152100,504.080933 388.208435,505.314728 390.209778,505.594574 
	C392.553223,505.922180 395.027313,506.210358 397.587708,504.918915 
	C395.889862,500.965820 393.266602,501.391632 389.876617,503.130585 
z"/>
<path fill="#000000" opacity="1.000000" stroke="none" 
	d="
M563.737183,516.687012 
	C557.829895,513.299927 555.973938,507.917358 558.600403,502.734283 
	C560.869324,498.256775 565.820740,496.650513 570.481567,498.843719 
	C572.546997,499.815643 573.952698,501.370087 574.739258,503.478943 
	C576.183655,507.351105 575.045715,509.025818 570.938599,509.255371 
	C568.210083,509.407928 565.374756,508.676849 562.473450,509.985992 
	C563.294067,512.960388 565.014832,513.821045 567.682678,513.441772 
	C569.885437,513.128601 570.990967,509.823853 573.797363,511.205048 
	C573.202332,516.069397 570.640808,517.544861 563.737183,516.687012 
M562.590637,503.581635 
	C563.696472,506.367004 566.024475,506.650452 570.335999,504.524658 
	C567.720459,500.820526 567.412476,500.760986 562.590637,503.581635 
z"/>
<path fill="#000000" opacity="1.000000" stroke="none" 
	d="
M345.331848,497.875488 
	C352.881165,498.205994 356.577545,501.859406 356.260315,508.213745 
	C355.989502,513.638062 351.736359,517.527466 346.394897,517.235596 
	C342.108765,517.001343 338.688629,513.905334 337.845917,509.496979 
	C336.865356,504.367279 339.325775,500.349884 345.331848,497.875488 
M349.351105,512.628235 
	C351.518219,511.401978 352.003265,509.367706 351.941589,507.111481 
	C351.857941,504.052185 350.309814,501.788239 347.284088,501.669373 
	C343.996582,501.540222 342.264099,503.793915 342.042999,507.066193 
	C341.735748,511.613556 343.718170,513.350830 349.351105,512.628235 
z"/>
<path fill="#000000" opacity="1.000000" stroke="none" 
	d="
M664.512329,499.171509 
	C670.357422,497.028168 674.617737,498.020538 677.225403,501.841339 
	C679.702332,505.470520 679.398010,511.187378 676.352905,514.296631 
	C673.063599,517.655212 669.098083,518.190979 664.964233,516.107300 
	C658.881409,513.041138 658.551453,504.868805 664.512329,499.171509 
M665.215210,511.040405 
	C667.285400,513.808472 669.851318,514.237244 672.523438,512.159973 
	C674.901794,510.311066 675.289001,507.647980 674.114441,504.972717 
	C673.021667,502.483551 671.062988,500.876770 668.178467,501.788483 
	C664.986450,502.797424 664.043701,505.364471 664.361450,508.492828 
	C664.427246,509.140381 664.672302,509.769684 665.215210,511.040405 
z"/>
<path fill="#000000" opacity="1.000000" stroke="none" 
	d="
M490.234375,510.140930 
	C487.672180,515.859924 484.066589,518.041504 479.382050,517.043274 
	C475.062744,516.122864 472.046692,512.305176 471.960724,507.649445 
	C471.878540,503.198700 474.953278,499.129944 479.197876,498.072693 
	C485.919647,496.398438 490.621307,501.350250 490.234375,510.140930 
M486.627258,506.748749 
	C486.107849,503.546600 484.330750,501.453247 481.002136,501.629730 
	C478.427032,501.766235 476.837830,503.632233 476.400299,506.173370 
	C475.832916,509.468781 476.638763,512.531921 480.214050,513.213806 
	C484.304016,513.993835 486.245148,511.376465 486.627258,506.748749 
z"/>
<path fill="#000000" opacity="1.000000" stroke="none" 
	d="
M708.997803,509.676666 
	C708.060486,509.310150 707.428528,509.108246 706.808167,508.875488 
	C703.826416,507.756775 701.188416,506.166229 701.924622,502.450195 
	C702.620911,498.935669 705.499451,497.753693 708.691284,497.870056 
	C712.051880,497.992554 714.735718,499.344025 714.987244,503.271301 
	C712.018311,505.872772 709.669006,499.801544 706.746094,503.121246 
	C706.468384,505.338531 708.458618,505.429047 709.888550,505.983490 
	C712.875183,507.141479 716.251892,508.191315 715.824585,512.211609 
	C715.447754,515.757019 712.529785,517.107422 709.327271,517.139343 
	C705.651489,517.176025 702.513550,516.008118 701.722778,511.740051 
	C704.156738,509.536194 705.343567,512.083435 706.924377,512.830750 
	C708.386902,513.522156 709.940735,513.918091 710.897278,512.344666 
	C711.772583,510.904755 710.257874,510.418823 708.997803,509.676666 
z"/>
<path fill="#000000" opacity="1.000000" stroke="none" 
	d="
M685.389038,511.678345 
	C685.035522,513.663086 686.496948,516.390259 683.730835,516.486206 
	C681.072693,516.578491 681.845581,513.879028 681.724121,512.200073 
	C681.592346,510.377899 681.685120,508.539276 681.684937,506.707855 
	C681.683960,497.622833 681.684570,497.622803 690.770996,497.799866 
	C695.761230,497.897095 698.238464,501.056915 698.274841,507.466370 
	C698.289001,509.960052 698.253662,512.458435 698.105408,514.946594 
	C698.037842,516.080933 697.210144,516.746216 696.043213,516.584961 
	C695.105835,516.455444 694.658508,515.710571 694.647583,514.795105 
	C694.621826,512.631592 694.676270,510.466888 694.638794,508.303650 
	C694.586731,505.295502 694.087708,502.404083 690.348328,502.110352 
	C686.334656,501.795044 686.015259,504.940613 685.609558,507.797974 
	C685.446472,508.946747 685.457275,510.120209 685.389038,511.678345 
z"/>
<path fill="#000000" opacity="1.000000" stroke="none" 
	d="
M593.792236,516.232239 
	C590.639893,516.309021 591.016663,514.155701 590.911865,512.417908 
	C590.772400,510.102264 590.835999,507.774628 590.704834,505.458221 
	C590.573486,503.138367 589.197083,501.716461 586.955933,501.545593 
	C584.423767,501.352600 582.771179,502.897766 582.470947,505.277771 
	C582.120239,508.058319 582.302795,510.903534 582.195618,513.718506 
	C582.144470,515.063416 582.029419,516.584412 580.187256,516.541931 
	C578.640320,516.506226 578.519104,515.196350 578.517029,513.988281 
	C578.508606,509.206421 578.513550,504.424561 578.513550,499.284760 
	C583.822510,499.503357 589.020142,495.342987 592.878662,500.502869 
	C596.344543,505.137695 596.011780,510.687683 593.792236,516.232239 
z"/>
<path fill="#000000" opacity="1.000000" stroke="none" 
	d="
M464.425446,502.484650 
	C459.883606,500.287476 457.097961,502.537659 457.001221,506.274597 
	C456.681335,518.630981 464.465424,511.595490 470.072266,509.817200 
	C468.629944,515.995239 465.134857,517.341125 460.868469,517.088135 
	C456.176819,516.809937 452.994324,512.991760 452.763123,507.922882 
	C452.527374,502.754211 455.255157,499.045563 460.011902,498.067566 
	C464.414001,497.162445 467.893768,499.241211 469.413635,503.717163 
	C467.410431,505.349579 466.107727,503.812988 464.425446,502.484650 
z"/>
<path fill="#000000" opacity="1.000000" stroke="none" 
	d="
M370.519592,511.467590 
	C369.468323,513.866699 369.309692,516.749268 366.336945,516.842285 
	C363.307678,516.936890 362.877014,514.083984 362.154297,512.003906 
	C360.658997,507.700256 358.353729,503.640594 357.621399,498.163361 
	C364.530762,499.604156 362.441864,506.848022 366.181610,509.627167 
	C369.802094,506.742004 368.220673,499.756470 374.915161,498.009766 
	C374.498779,503.483887 371.956970,507.095886 370.519592,511.467590 
z"/>
<path fill="#000000" opacity="1.000000" stroke="none" 
	d="
M641.524475,497.375793 
	C642.741638,494.320374 644.001038,491.695923 646.192932,496.174133 
	C647.079773,497.986023 649.535706,497.816406 650.034668,500.280121 
	C647.433167,502.067474 645.471924,504.417114 646.165894,508.178986 
	C646.525024,510.126099 646.143494,512.185486 648.582642,513.105652 
	C649.772949,513.554688 650.520264,514.507385 649.753296,515.850708 
	C649.080261,517.029358 647.848755,517.146545 646.685364,516.946350 
	C644.596191,516.586792 642.941040,515.573730 642.385498,513.349792 
	C641.239807,508.764191 642.753479,503.790344 640.365051,499.351837 
	C640.213623,499.070435 641.012573,498.277527 641.524475,497.375793 
z"/>
<path fill="#000000" opacity="1.000000" stroke="none" 
	d="
M522.615173,247.596375 
	C519.262573,245.572601 518.341614,243.491577 521.331848,240.745422 
	C523.142517,239.082626 522.612366,235.860519 525.807983,234.328171 
	C528.490234,238.116638 529.539612,242.337799 528.505188,246.725677 
	C527.707764,250.108398 525.110596,248.998138 522.615173,247.596375 
z"/>
<path fill="#000000" opacity="1.000000" stroke="none" 
	d="
M655.038330,516.712585 
	C653.030701,514.523682 652.202087,501.528442 653.558777,499.625916 
	C654.616150,498.143005 655.763245,498.308533 656.739624,499.671478 
	C658.136230,501.620850 657.112854,514.533691 655.038330,516.712585 
z"/>
<path fill="#000000" opacity="1.000000" stroke="none" 
	d="
M381.004944,515.257202 
	C378.755402,517.664429 377.310638,516.532959 377.173431,514.330750 
	C376.895111,509.864044 377.091797,505.364349 377.185150,500.880219 
	C377.210419,499.665863 377.725311,498.496460 379.218597,498.529602 
	C381.055054,498.570343 381.226257,500.040375 381.230286,501.386627 
	C381.243713,505.874756 381.173706,510.363159 381.004944,515.257202 
z"/>
</svg>